<mxfile host="app.diagrams.net" modified="2020-11-12T11:07:36.687Z" agent="5.0 (Windows NT 10.0; Win64; x64) AppleWebKit/537.36 (KHTML, like Gecko) Chrome/86.0.4240.193 Safari/537.36" etag="aHVdjKDOx9ogLdzce4W3" version="13.9.6" type="github">
  <diagram id="R2lEEEUBdFMjLlhIrx00" name="Page-1">
    <mxGraphModel dx="868" dy="450" grid="1" gridSize="10" guides="1" tooltips="1" connect="1" arrows="1" fold="1" page="1" pageScale="1" pageWidth="850" pageHeight="1100" math="0" shadow="0" extFonts="Permanent Marker^https://fonts.googleapis.com/css?family=Permanent+Marker">
      <root>
        <mxCell id="0" />
        <mxCell id="1" parent="0" />
        <mxCell id="hRy47nVsQbx_nagL0t2H-4" value="Members" style="rounded=0;whiteSpace=wrap;html=1;" vertex="1" parent="1">
          <mxGeometry x="90" y="120" width="190" height="30" as="geometry" />
        </mxCell>
        <mxCell id="hRy47nVsQbx_nagL0t2H-7" value="Member_unique_identifier&lt;br&gt;Memeber_last_name&lt;br&gt;Member_first_name&lt;br&gt;Member_adress&lt;br&gt;Member_date_birth&lt;br&gt;Member_gender" style="rounded=0;whiteSpace=wrap;html=1;align=left;" vertex="1" parent="1">
          <mxGeometry x="90" y="150" width="190" height="110" as="geometry" />
        </mxCell>
        <mxCell id="hRy47nVsQbx_nagL0t2H-8" value="Gymnasuims" style="rounded=0;whiteSpace=wrap;html=1;align=center;" vertex="1" parent="1">
          <mxGeometry x="560" y="120" width="190" height="30" as="geometry" />
        </mxCell>
        <mxCell id="hRy47nVsQbx_nagL0t2H-9" value="Gymnasium_name&lt;br&gt;Gymnasium_adress&lt;br&gt;Gymnasium_number&lt;br&gt;" style="rounded=0;whiteSpace=wrap;html=1;align=left;" vertex="1" parent="1">
          <mxGeometry x="560" y="150" width="190" height="60" as="geometry" />
        </mxCell>
        <mxCell id="hRy47nVsQbx_nagL0t2H-10" value="" style="endArrow=none;html=1;" edge="1" parent="1" target="hRy47nVsQbx_nagL0t2H-11">
          <mxGeometry width="50" height="50" relative="1" as="geometry">
            <mxPoint x="280" y="200" as="sourcePoint" />
            <mxPoint x="350" y="200" as="targetPoint" />
            <Array as="points" />
          </mxGeometry>
        </mxCell>
        <mxCell id="hRy47nVsQbx_nagL0t2H-11" value="regiter" style="ellipse;whiteSpace=wrap;html=1;" vertex="1" parent="1">
          <mxGeometry x="360" y="160" width="100" height="80" as="geometry" />
        </mxCell>
        <mxCell id="hRy47nVsQbx_nagL0t2H-12" value="" style="endArrow=none;html=1;" edge="1" parent="1">
          <mxGeometry width="50" height="50" relative="1" as="geometry">
            <mxPoint x="460" y="199.5" as="sourcePoint" />
            <mxPoint x="560" y="202" as="targetPoint" />
          </mxGeometry>
        </mxCell>
        <mxCell id="hRy47nVsQbx_nagL0t2H-13" value="1..1" style="text;html=1;strokeColor=none;fillColor=none;align=center;verticalAlign=middle;whiteSpace=wrap;rounded=0;" vertex="1" parent="1">
          <mxGeometry x="280" y="180" width="40" height="20" as="geometry" />
        </mxCell>
        <mxCell id="hRy47nVsQbx_nagL0t2H-14" value="1..N" style="text;html=1;strokeColor=none;fillColor=none;align=center;verticalAlign=middle;whiteSpace=wrap;rounded=0;" vertex="1" parent="1">
          <mxGeometry x="520" y="180" width="40" height="20" as="geometry" />
        </mxCell>
        <mxCell id="hRy47nVsQbx_nagL0t2H-15" value="Coaches" style="rounded=0;whiteSpace=wrap;html=1;align=center;" vertex="1" parent="1">
          <mxGeometry x="90" y="320" width="190" height="30" as="geometry" />
        </mxCell>
        <mxCell id="hRy47nVsQbx_nagL0t2H-17" value="Coache_last_name&lt;br&gt;Coache_first_name&lt;br&gt;Coache_age&lt;br&gt;Coache_speciality" style="rounded=0;whiteSpace=wrap;html=1;align=left;" vertex="1" parent="1">
          <mxGeometry x="90" y="350" width="190" height="80" as="geometry" />
        </mxCell>
        <mxCell id="hRy47nVsQbx_nagL0t2H-18" value="Sessions" style="rounded=0;whiteSpace=wrap;html=1;align=center;" vertex="1" parent="1">
          <mxGeometry x="560" y="320" width="190" height="30" as="geometry" />
        </mxCell>
        <mxCell id="hRy47nVsQbx_nagL0t2H-19" value="Session_type_sport&lt;br&gt;Session_schedule" style="rounded=0;whiteSpace=wrap;html=1;align=left;" vertex="1" parent="1">
          <mxGeometry x="560" y="350" width="190" height="60" as="geometry" />
        </mxCell>
        <mxCell id="hRy47nVsQbx_nagL0t2H-20" value="" style="endArrow=classic;html=1;" edge="1" parent="1">
          <mxGeometry width="50" height="50" relative="1" as="geometry">
            <mxPoint x="640" y="318" as="sourcePoint" />
            <mxPoint x="640" y="210" as="targetPoint" />
          </mxGeometry>
        </mxCell>
        <mxCell id="hRy47nVsQbx_nagL0t2H-21" value="" style="endArrow=none;html=1;" edge="1" parent="1" target="hRy47nVsQbx_nagL0t2H-22">
          <mxGeometry width="50" height="50" relative="1" as="geometry">
            <mxPoint x="280" y="380" as="sourcePoint" />
            <mxPoint x="350" y="380" as="targetPoint" />
            <Array as="points" />
          </mxGeometry>
        </mxCell>
        <mxCell id="hRy47nVsQbx_nagL0t2H-22" value="works_for" style="ellipse;whiteSpace=wrap;html=1;" vertex="1" parent="1">
          <mxGeometry x="360" y="340" width="100" height="80" as="geometry" />
        </mxCell>
        <mxCell id="hRy47nVsQbx_nagL0t2H-23" value="" style="endArrow=none;html=1;" edge="1" parent="1">
          <mxGeometry width="50" height="50" relative="1" as="geometry">
            <mxPoint x="460" y="379.5" as="sourcePoint" />
            <mxPoint x="560" y="382" as="targetPoint" />
          </mxGeometry>
        </mxCell>
        <mxCell id="hRy47nVsQbx_nagL0t2H-24" value="1..1" style="text;html=1;strokeColor=none;fillColor=none;align=center;verticalAlign=middle;whiteSpace=wrap;rounded=0;" vertex="1" parent="1">
          <mxGeometry x="280" y="360" width="40" height="20" as="geometry" />
        </mxCell>
        <mxCell id="hRy47nVsQbx_nagL0t2H-25" value="1..2" style="text;html=1;strokeColor=none;fillColor=none;align=center;verticalAlign=middle;whiteSpace=wrap;rounded=0;" vertex="1" parent="1">
          <mxGeometry x="520" y="360" width="40" height="20" as="geometry" />
        </mxCell>
        <mxCell id="hRy47nVsQbx_nagL0t2H-27" value="" style="endArrow=none;html=1;exitX=1;exitY=1;exitDx=0;exitDy=0;" edge="1" parent="1" target="hRy47nVsQbx_nagL0t2H-28" source="hRy47nVsQbx_nagL0t2H-7">
          <mxGeometry width="50" height="50" relative="1" as="geometry">
            <mxPoint x="290" y="290" as="sourcePoint" />
            <mxPoint x="360" y="290" as="targetPoint" />
            <Array as="points" />
          </mxGeometry>
        </mxCell>
        <mxCell id="hRy47nVsQbx_nagL0t2H-28" value="be accommodated" style="ellipse;whiteSpace=wrap;html=1;" vertex="1" parent="1">
          <mxGeometry x="370" y="250" width="100" height="80" as="geometry" />
        </mxCell>
        <mxCell id="hRy47nVsQbx_nagL0t2H-29" value="" style="endArrow=none;html=1;entryX=0.053;entryY=0;entryDx=0;entryDy=0;entryPerimeter=0;" edge="1" parent="1" target="hRy47nVsQbx_nagL0t2H-18">
          <mxGeometry width="50" height="50" relative="1" as="geometry">
            <mxPoint x="470" y="289.5" as="sourcePoint" />
            <mxPoint x="570" y="292" as="targetPoint" />
          </mxGeometry>
        </mxCell>
        <mxCell id="hRy47nVsQbx_nagL0t2H-30" value="1..1" style="text;html=1;strokeColor=none;fillColor=none;align=center;verticalAlign=middle;whiteSpace=wrap;rounded=0;rotation=15;" vertex="1" parent="1">
          <mxGeometry x="280" y="240" width="40" height="20" as="geometry" />
        </mxCell>
        <mxCell id="hRy47nVsQbx_nagL0t2H-31" value="1..20" style="text;html=1;strokeColor=none;fillColor=none;align=center;verticalAlign=middle;whiteSpace=wrap;rounded=0;rotation=15;" vertex="1" parent="1">
          <mxGeometry x="550" y="300" width="30" height="20" as="geometry" />
        </mxCell>
      </root>
    </mxGraphModel>
  </diagram>
</mxfile>
